<svg width="44" height="44" viewBox="0 0 44 44" fill="none" xmlns="http://www.w3.org/2000/svg">
<path d="M0 22C0 9.84974 9.84974 0 22 0C34.1503 0 44 9.84974 44 22C44 34.1503 34.1503 44 22 44C9.84974 44 0 34.1503 0 22Z" fill="#002FFF" fill-opacity="0.16"/>
<path d="M26.1094 31.9098C26.0622 31.933 26.0131 31.9521 25.9626 31.9669C25.9093 31.9821 25.8546 31.9919 25.7994 31.9963C25.7451 32.0012 25.6905 32.0012 25.6362 31.9963C25.5813 31.9922 25.5267 31.984 25.473 31.9718C25.417 31.9571 25.3624 31.9374 25.3098 31.913C25.2571 31.8891 25.2068 31.8601 25.1597 31.8265C25.1143 31.7925 25.0717 31.7549 25.0324 31.7139C24.9922 31.6705 24.9566 31.6229 24.9263 31.572L23.4445 29.1437L22.1896 30.6124C22.1332 30.6797 22.0732 30.7439 22.0101 30.805C21.9465 30.8653 21.8828 30.9208 21.8175 30.9682L21.8045 30.9779C21.7419 31.0264 21.6765 31.0711 21.6087 31.1118C21.5438 31.1509 21.4761 31.1852 21.4063 31.2146C21.3535 31.2389 21.299 31.2591 21.2431 31.275C21.1898 31.2914 21.1352 31.3034 21.0799 31.3109C21.0226 31.3187 20.9648 31.3225 20.9069 31.3223C20.8522 31.3201 20.7977 31.3141 20.7437 31.3043C20.6778 31.2918 20.6133 31.2727 20.5512 31.2472C20.4902 31.2227 20.4322 31.1915 20.3782 31.1542C20.3241 31.1167 20.2739 31.0741 20.2281 31.0269C20.1827 30.9761 20.1417 30.9215 20.1057 30.8637L20.0877 30.8311L20.073 30.7968L19.8625 30.2273V30.1995L18.7512 19.0096C18.7405 18.9376 18.7405 18.8645 18.7512 18.7925C18.7639 18.7213 18.7876 18.6525 18.8214 18.5885C18.8752 18.4869 18.953 18.4001 19.0482 18.3356C19.0936 18.3042 19.143 18.2789 19.1951 18.2605C19.2477 18.2409 19.3025 18.2278 19.3583 18.2214C19.4284 18.2135 19.4994 18.2162 19.5688 18.2295C19.6398 18.2436 19.7085 18.2678 19.7728 18.3013L19.8217 18.3274C22.0264 19.77 24.081 21.1115 26.1274 22.448L29.228 24.4699C29.2844 24.5062 29.3389 24.5454 29.3912 24.5874C29.4382 24.6243 29.4829 24.6641 29.525 24.7065L29.5348 24.718C29.5766 24.7597 29.6154 24.8044 29.6507 24.8518C29.6858 24.8963 29.7169 24.9438 29.7437 24.9938C29.7774 25.0529 29.8053 25.1152 29.8269 25.1798C29.8479 25.2417 29.8621 25.3057 29.8694 25.3707C29.8767 25.4363 29.8767 25.5026 29.8694 25.5682C29.8628 25.6339 29.8503 25.6989 29.8318 25.7624C29.7976 25.8723 29.7458 25.9759 29.6784 26.0692C29.6458 26.1173 29.6092 26.1626 29.5691 26.2046C29.5276 26.2493 29.4829 26.2907 29.4353 26.3287C29.3753 26.3781 29.3121 26.4233 29.246 26.4641C29.1754 26.5064 29.1023 26.5446 29.0273 26.5783C28.9506 26.6126 28.8641 26.6452 28.789 26.673C28.7061 26.7011 28.6217 26.7245 28.5361 26.7432C28.084 26.8313 27.6336 26.9406 27.1865 27.0483L26.6561 27.174L28.1248 29.612C28.1549 29.664 28.1801 29.7186 28.1999 29.7752C28.2592 29.9437 28.2677 30.1258 28.2244 30.2991V30.3154C28.2111 30.368 28.1931 30.4194 28.1705 30.4688C28.1467 30.5193 28.1189 30.5679 28.0873 30.614C28.0546 30.6615 28.0174 30.7057 27.9763 30.7462C27.935 30.7865 27.8903 30.8231 27.8425 30.8556L27.5161 31.0661C27.0647 31.3755 26.595 31.6572 26.1094 31.9098ZM18.2159 15.1256C18.294 15.2748 18.3113 15.4484 18.2644 15.6101C18.2175 15.7718 18.11 15.9091 17.9642 15.9933C17.8184 16.0776 17.6457 16.1023 17.4822 16.0622C17.3187 16.0222 17.177 15.9205 17.0866 15.7784L15.7811 13.4937C15.7071 13.3451 15.6925 13.1739 15.7403 13.0148C15.7881 12.8558 15.8947 12.721 16.0384 12.6379C16.1821 12.5547 16.3521 12.5294 16.5138 12.5671C16.6755 12.6048 16.8167 12.7028 16.9088 12.841L18.2241 15.1256H18.2159ZM15.7681 22.758C15.9167 22.684 16.0879 22.6695 16.2469 22.7173C16.4059 22.7651 16.5408 22.8717 16.6239 23.0154C16.7071 23.1591 16.7324 23.329 16.6947 23.4907C16.657 23.6524 16.559 23.7937 16.4208 23.8857L14.1362 25.201C13.9875 25.275 13.8163 25.2896 13.6573 25.2418C13.4983 25.194 13.3635 25.0874 13.2803 24.9437C13.1971 24.8 13.1718 24.63 13.2095 24.4683C13.2473 24.3066 13.3452 24.1654 13.4834 24.0734L15.7681 22.758ZM15.4303 18.4515C15.5908 18.5019 15.7256 18.6125 15.8066 18.76C15.8876 18.9075 15.9085 19.0806 15.8649 19.2432C15.8213 19.4058 15.7167 19.5452 15.5727 19.6324C15.4288 19.7196 15.2567 19.7479 15.0925 19.7113L12.5646 19.0259C12.4095 18.9722 12.2802 18.8621 12.2026 18.7174C12.125 18.5728 12.1048 18.4042 12.146 18.2452C12.1872 18.0863 12.2867 17.9487 12.4248 17.8599C12.5629 17.7711 12.7293 17.7376 12.891 17.7661L15.4254 18.4515H15.4303ZM25.4567 18.6685C25.3081 18.7425 25.1368 18.7571 24.9778 18.7093C24.8188 18.6615 24.684 18.5549 24.6008 18.4112C24.5176 18.2675 24.4923 18.0975 24.5301 17.9358C24.5678 17.7741 24.6657 17.6329 24.8039 17.5408L27.0886 16.2255C27.2372 16.1515 27.4085 16.1369 27.5675 16.1848C27.7265 16.2326 27.8613 16.3392 27.9445 16.4828C28.0276 16.6265 28.0529 16.7965 28.0152 16.9582C27.9775 17.1199 27.8795 17.2611 27.7413 17.3532L25.4567 18.6685ZM22.4311 15.3068C22.4141 15.3947 22.3792 15.4782 22.3285 15.552C22.2778 15.6259 22.2125 15.6885 22.1366 15.736C22.0607 15.7836 21.9758 15.815 21.8872 15.8283C21.7987 15.8416 21.7083 15.8365 21.6218 15.8134C21.5352 15.7903 21.4544 15.7496 21.3843 15.6939C21.3141 15.6382 21.2562 15.5686 21.2141 15.4896C21.172 15.4105 21.1466 15.3237 21.1395 15.2344C21.1325 15.1451 21.1438 15.0553 21.1729 14.9706L21.8453 12.4395C21.8989 12.2844 22.009 12.1551 22.1537 12.0775C22.2984 11.9999 22.467 11.9797 22.6259 12.0209C22.7849 12.062 22.9224 12.1616 23.0112 12.2997C23.1 12.4377 23.1336 12.6042 23.1051 12.7659L22.4311 15.3068ZM25.7227 31.0318L27.3007 30.0755C26.7492 29.1584 25.8565 27.8643 25.4224 26.9471C25.4142 26.9282 25.4076 26.9085 25.4028 26.8884C25.3799 26.7871 25.3982 26.6809 25.4536 26.5931C25.5089 26.5052 25.5969 26.443 25.6982 26.42C26.5762 26.2193 27.4737 26.03 28.3452 25.8113C28.4458 25.7889 28.5441 25.7572 28.6389 25.7167C28.7145 25.6837 28.7858 25.6415 28.851 25.591C28.8733 25.572 28.8941 25.5513 28.9131 25.529C28.9227 25.5172 28.9304 25.504 28.9359 25.4899L28.9261 25.4605C28.907 25.428 28.8827 25.3988 28.8543 25.374C28.8124 25.3357 28.767 25.3013 28.7189 25.2712L19.7548 19.4159C20.0991 22.9017 20.6034 26.6126 20.8074 30.0739C20.8128 30.129 20.8226 30.1835 20.8368 30.2371C20.8469 30.2723 20.8612 30.3063 20.8792 30.3382L20.9004 30.3611C20.9161 30.3634 20.932 30.3634 20.9477 30.3611C20.9763 30.3546 21.0042 30.3453 21.031 30.3333C21.106 30.2998 21.1762 30.2564 21.2398 30.2044C21.3193 30.1384 21.393 30.0658 21.4601 29.9874C21.7751 29.6169 23.0268 28.0063 23.3205 27.8365C23.4093 27.7837 23.5155 27.7681 23.6157 27.7932C23.716 27.8183 23.8023 27.8819 23.8558 27.9703L25.7227 31.0302V31.0318Z" fill="white"/>
</svg>
