<svg width="44" height="44" viewBox="0 0 44 44" fill="none" xmlns="http://www.w3.org/2000/svg">
<path d="M0 22C0 9.84974 9.84974 0 22 0C34.1503 0 44 9.84974 44 22C44 34.1503 34.1503 44 22 44C9.84974 44 0 34.1503 0 22Z" fill="#002FFF" fill-opacity="0.16"/>
<path d="M30.9942 22.2504V22.0454C30.9942 20.8235 29.9931 19.8295 28.7628 19.8295C28.4849 19.8295 28.2189 19.8806 27.9733 19.9732C27.7645 18.965 26.8638 18.2045 25.7876 18.2045C25.4953 18.2045 25.2164 18.2611 24.9604 18.363C24.6904 17.4326 23.7936 16.7272 22.7629 16.7272C22.4854 16.7272 22.2178 16.7805 21.9695 16.8765V14.2159C21.9695 12.994 20.9684 12 19.7381 12C18.5078 12 17.5067 12.994 17.5067 14.2159V20.7413C17.1162 20.2461 16.6466 19.8144 16.1016 19.5919C15.4933 19.3437 14.8533 19.3734 14.2503 19.6778C13.1414 20.2378 12.6842 21.5873 13.2311 22.6863L16.003 28.2568C16.0813 28.4097 17.9597 32 21.3606 32H25.3274C28.4553 32 31 29.4597 31 26.3366L30.9969 22.2504H30.9942ZM25.3275 30.5227H21.3607C18.9109 30.5227 17.3847 27.6925 17.3297 27.5883L14.5648 22.0319C14.374 21.6485 14.5321 21.1929 14.9247 20.9946C15.1411 20.8853 15.3294 20.8742 15.5354 20.958C16.3566 21.2923 17.1628 22.9036 17.4778 23.8401L17.7168 24.555L18.9944 24.106V14.2159C18.9944 13.8086 19.328 13.4773 19.7382 13.4773C20.1484 13.4773 20.482 13.8086 20.482 14.2159V22.7347H20.4955H21.9696H21.9831V18.9924C21.9831 18.58 22.3548 18.2045 22.763 18.2045C23.1856 18.2045 23.5563 18.5497 23.5563 18.9431V20.4204V22.9809H25.0439V20.4204C25.0439 20.013 25.3775 19.6817 25.7877 19.6817C26.1979 19.6817 26.5315 20.013 26.5315 20.4204V22.0454V23.6703H28.0191V22.0454C28.0191 21.638 28.3527 21.3067 28.7629 21.3067C29.173 21.3067 29.5067 21.638 29.5067 22.0454V23.1018H29.5101L29.5126 26.3372C29.5125 28.6451 27.6351 30.5227 25.3275 30.5227Z" fill="white"/>
</svg>
